# xmcd CD database file
#
# Track frame offsets:
#	150
#	33172
#	63659
#	95442
#	132400
#	168188
#	194534
#	221084
#	255145
#	291688
#
# Disc length: 4044 seconds
#
# Revision: 0
# Processed by: cddbd v1.5.2PL0 Copyright (c) Steve Scherf et al.
# Submitted via: CDex 1.70beta2
#
DISCID=960fca0a
DTITLE=Klaus Graf Quartett - moving on
DYEAR=2006
DGENRE=Jazz
TTITLE0=Bft (Beaufort)
TTITLE1=If I Should Loose You
TTITLE2=Movin On
TTITLE3=Nature Boy
TTITLE4=I Feel Fine
TTITLE5=If You Could See Me Now
TTITLE6=On Green Dolphin Street
TTITLE7=Norwegian Mood
TTITLE8=Homezone
TTITLE9=Far And Near
EXTD=YEAR: 2006
EXTT0=
EXTT1=
EXTT2=
EXTT3=
EXTT4=
EXTT5=
EXTT6=
EXTT7=
EXTT8=
EXTT9=
PLAYORDER=
